# xmcd CD database file
#
# Track frame offsets:
#	150
#	16215
#	34577
#	44150
#	58813
#	76940
#	94928
#	104994
#	125879
#	142666
#	161252
#	178227
#	200341
#	223541
#	233359
#	248994
#	266186
#	282250
#
# Disc length: 3910 seconds
#
# Revision: 1
# Processed by: cddbd v1.5.1PL2 Copyright (c) Steve Scherf et al.
# Submitted via: CDex 1.51
#
DISCID=080f4412
DTITLE=Various Artist - The Best of Smooth Jazz...Ever! [CD2)
DYEAR=2003
DGENRE=Smooth Jazz
TTITLE0=Guru - Ain't No Time To Play (Ft DC Lee)
TTITLE1=D'Angelo - Brown Sugar
TTITLE2=Bobbie Gentry - Son Of A Preacher Man
TTITLE3=Bob Dorough - 3 Is The Magic Number
TTITLE4=St Germain - Rose Rouge
TTITLE5=Shuggie Otis - Strawberry Letter 23
TTITLE6=Nancy Wilson - Call Me
TTITLE7=Donald Byrd - Just My Imagination
TTITLE8=Luther Vandross - So Amazing
TTITLE9=Cassandra Wilson - Time After Time
TTITLE10=Minnie Riperton - Lovin' You
TTITLE11=Bob Belden - Sister Moon
TTITLE12=Carleen Anderson - Maybe I'm Amazed
TTITLE13=Peggy Lee - I'm A Woman
TTITLE14=Nat 'King' Cole - Unforgetable
TTITLE15=Lou Rawls - Girl From Ipanema
TTITLE16=Cannonball Adderley - Sambop
TTITLE17=Elsa Soares - Mas Que Nada (Say No More)
EXTD=YEAR: 2003
EXTT0=
EXTT1=
EXTT2=
EXTT3=
EXTT4=
EXTT5=
EXTT6=
EXTT7=
EXTT8=
EXTT9=
EXTT10=
EXTT11=
EXTT12=
EXTT13=
EXTT14=
EXTT15=
EXTT16=
EXTT17=
PLAYORDER=
